<?xml version="1.0" encoding="UTF-8"?>
<svg xmlns="http://www.w3.org/2000/svg" xmlns:xlink="http://www.w3.org/1999/xlink" version="1.1" width="3200" height="2608.1647434329407" viewBox="0 0 3200 2608.1647434329407">
  <g transform="scale(10) translate(10, 10)">
    <defs id="SvgjsDefs24935"></defs>
    <g id="SvgjsG24936" transform="matrix(1.9677389268990588,0,0,1.9677389268990588,51.49083186443871,-38.09452981954599)" fill="#fd7014">
      <title xmlns="http://www.w3.org/2000/svg">Artboard 17</title>
      <path xmlns="http://www.w3.org/2000/svg" d="M60.23,64.5a18.54,18.54,0,0,1-4.53-.59c-1.35-.35-2.85-1-2.4-2.83a1.86,1.86,0,0,1,2-1.58,6.28,6.28,0,0,1,1.43.2,14.2,14.2,0,0,0,3.35.41c3.9,0,7.28-1.72,10.36-5.28a23.3,23.3,0,0,0,5.41-12.5C73.78,42,44,41.67,30.4,41.67c-4.24,0-5.62,0-6,.07V43.9c0,1.86,0,3.71,0,5.56,0,1.19,0,2.81-1.91,2.91h-.18c-1.8,0-2.14-1.51-2.23-2.82-.06-1-.11-1.93-.15-2.9s-.11-2.19-.19-3.29c-.21-2.76-.17-4.13.57-5s2.17-1.1,4.9-1.29c.23-.63.47-1.25.71-1.86.54-1.43,1.06-2.77,1.54-4.16.81-2.38,1.64-4.78,4.48-4.78a6,6,0,0,1,.71,0,6.81,6.81,0,0,0,.32-3c0-.3,0-.6,0-.9,0-2.07.94-3,2.92-3l4.66,0c1.56,0,3.13,0,4.7,0h.11a3.36,3.36,0,0,1,3.07,1.5,11,11,0,0,0,9.94,5.44A19.94,19.94,0,0,0,61.71,26,6.87,6.87,0,0,1,63,25.92c1.8,0,3.12.8,4.41,2.67C68.2,29.81,69.13,31,70,32.15s2,2.54,2.89,3.89a3.12,3.12,0,0,0,3,1.55h.83c1.88,0,2.87.1,3.36.66s.46,1.86.18,4.12c-.92,7.67-3.9,13.52-9.1,17.9A16.64,16.64,0,0,1,60.23,64.5Zm-30-27.32c7.64.16,15.11.31,22.57.31,5.45,0,10.37-.08,15-.24l-.19-.13a3.08,3.08,0,0,0-.33-.22,6.21,6.21,0,0,0-2.37-.35H63.49l-3-.06c-3.54-.07-7.2-.14-10.8-.14l-1.16,0c-1.73-.05-2.57-.72-2.59-2.07,0-1.83,1.42-2.16,2.69-2.23.27,0,.54,0,.81,0h.91l.9,0H64.15a2,2,0,0,0-2.3-1.62v-.1l-.08.1q-11.48.15-23,.27l-5,.05c-.77,0-1.44,0-1.74.89-.2.57-.43,1.12-.66,1.68A15.26,15.26,0,0,0,30.19,37.18ZM42.2,26h5a5.7,5.7,0,0,0-3.41-2.27,14.35,14.35,0,0,0-3.45-.47,5.47,5.47,0,0,0-2.64.54,3.21,3.21,0,0,0-.36,2c0,.09.06.15.09.15Z"></path>
      <path xmlns="http://www.w3.org/2000/svg" d="M60.23,64.55h0A18.56,18.56,0,0,1,55.69,64c-1.38-.36-2.89-1-2.44-2.9a1.91,1.91,0,0,1,2.06-1.61,6.28,6.28,0,0,1,1.44.2,14.05,14.05,0,0,0,3.34.41c3.88,0,7.25-1.72,10.32-5.26a23.36,23.36,0,0,0,5.4-12.43c-2.48-.29-32-.65-45.41-.65-4.15,0-5.52,0-5.92.06v2.59c0,1.7,0,3.4,0,5.09,0,1.21,0,2.86-2,3h-.18c-1.84,0-2.19-1.53-2.28-2.87-.06-1-.11-2-.15-2.9-.06-1.08-.11-2.19-.19-3.28-.21-2.78-.17-4.16.58-5s2.18-1.11,4.9-1.31c.23-.62.47-1.23.7-1.83.55-1.43,1.06-2.77,1.54-4.16.81-2.36,1.65-4.81,4.53-4.81a5.27,5.27,0,0,1,.68,0,6.82,6.82,0,0,0,.3-2.92c0-.3,0-.61,0-.91,0-2.11,1-3.09,3-3.09l4.66,0c1.67,0,3.21,0,4.7,0h.11a3.41,3.41,0,0,1,3.11,1.52,10.94,10.94,0,0,0,9.9,5.42A19.92,19.92,0,0,0,61.7,26,7,7,0,0,1,63,25.87c1.82,0,3.15.8,4.45,2.69.83,1.22,1.76,2.4,2.66,3.54v0c1,1.25,2,2.54,2.9,3.89a3.06,3.06,0,0,0,2.92,1.53h.83c1.9,0,2.89.1,3.4.68s.47,1.88.19,4.16c-.93,7.67-3.91,13.54-9.11,17.93A16.72,16.72,0,0,1,60.23,64.55Zm-4.92-5a1.81,1.81,0,0,0-2,1.54c-.44,1.8,1,2.43,2.36,2.77a18.47,18.47,0,0,0,4.52.59,16.64,16.64,0,0,0,10.9-4.21c5.19-4.38,8.16-10.22,9.08-17.87.28-2.26.39-3.46-.16-4.09s-1.46-.64-3.33-.64h-.83a3.16,3.16,0,0,1-3-1.58C72,34.72,71,33.43,70,32.18h0c-.9-1.15-1.83-2.33-2.66-3.55C66,26.76,64.73,26,63,26a6.73,6.73,0,0,0-1.23.12,20.15,20.15,0,0,1-3.34.31,11,11,0,0,1-10-5.47,3.34,3.34,0,0,0-3-1.47h-.11c-1.49,0-3,0-4.7,0l-4.66,0c-1.95,0-2.86.95-2.87,3,0,.3,0,.6,0,.9a6.89,6.89,0,0,1-.32,3v0h0a5.85,5.85,0,0,0-.71,0c-2.81,0-3.64,2.41-4.44,4.75-.47,1.38-1,2.72-1.53,4.15l-.72,1.86v0h0c-2.72.19-4.14.43-4.87,1.28s-.75,2.2-.55,4.95c.08,1.09.13,2.21.18,3.28.05.9.1,1.92.16,2.91.09,1.29.42,2.77,2.18,2.77h.17c1.87-.1,1.87-1.69,1.87-2.86,0-1.69,0-3.39,0-5.09V41.69h0c.34,0,1.65-.07,6-.07,13.48,0,43.37.36,45.47.66h0v0a23.44,23.44,0,0,1-5.42,12.54c-3.09,3.56-6.49,5.29-10.4,5.29a14.76,14.76,0,0,1-3.36-.41A6.13,6.13,0,0,0,55.31,59.55Zm-2.55-22c-7.45,0-14.93-.15-22.57-.31h-.05v-.06a15.47,15.47,0,0,1,1.21-3.87c.21-.52.45-1.1.65-1.68.32-.91,1-.91,1.79-.92l5-.05c7.52-.08,15.29-.17,22.93-.27l.15-.2v.2A2.1,2.1,0,0,1,64.2,32v.07H51.26l-.8,0h-1c-.32,0-.57,0-.81,0-1.24.07-2.66.39-2.64,2.18,0,1.31.85,2,2.54,2l1.16,0c3.62,0,7.27.07,10.8.14l3,.06h1.41a6.31,6.31,0,0,1,2.39.35,2.25,2.25,0,0,1,.34.23l.18.13.13.09H67.8C63.12,37.46,58.2,37.54,52.76,37.54Zm-22.51-.41c7.62.16,15.08.31,22.51.31,5.38,0,10.25-.08,14.89-.23l-.07-.05a2.11,2.11,0,0,0-.32-.21,6.08,6.08,0,0,0-2.35-.35H63.49l-3-.06c-3.53-.07-7.17-.14-10.79-.14l-1.16,0c-1.76,0-2.62-.74-2.64-2.12,0-1.88,1.45-2.2,2.74-2.28.23,0,.49,0,.81,0h1l.8,0H64.08a2,2,0,0,0-2.23-1.52h-.07c-7.65.1-15.43.19-23,.27l-5,.05c-.78,0-1.4,0-1.69.86-.2.58-.45,1.16-.66,1.68A15.39,15.39,0,0,0,30.25,37.13Zm17-11H37.42c-.08,0-.12-.1-.14-.19a3.15,3.15,0,0,1,.39-2.09,5.43,5.43,0,0,1,2.66-.55,13.91,13.91,0,0,1,3.46.48A5.79,5.79,0,0,1,47.23,26ZM42.2,26h4.9a5.82,5.82,0,0,0-3.33-2.16,14.27,14.27,0,0,0-3.44-.47,5.43,5.43,0,0,0-2.61.53,3.21,3.21,0,0,0-.34,2c0,.08,0,.11,0,.11Z"></path>
      <path xmlns="http://www.w3.org/2000/svg" d="M35,80.3A3.79,3.79,0,0,1,32.33,79c-3.6-3.52-7.68-7.52-10-12.65a11.33,11.33,0,0,1-.15-9.26,9.36,9.36,0,0,1,5.92-5.17,9.08,9.08,0,0,1,2.61-.42,5.43,5.43,0,0,1,.57,0,6.73,6.73,0,0,1,1.81.5c.36.13.74.28,1.13.38a7,7,0,0,0,1.62.19A16.4,16.4,0,0,0,39.72,52l.33-.08a11,11,0,0,1,2.64-.33,8.58,8.58,0,0,1,6.39,2.7,10.5,10.5,0,0,1,2.56,7.32c-.14,3.11-2.63,6.58-5,9.56a52.55,52.55,0,0,1-9,8.15A4.26,4.26,0,0,1,35,80.3ZM30.49,55.64a5.05,5.05,0,0,0-3.21,1.25c-2,1.64-2.57,4.06-1.48,6.81,1.75,4.42,5,7.63,8.39,11l.88.87a47.28,47.28,0,0,0,9-8.2,16.7,16.7,0,0,0,3-5.32,4.5,4.5,0,0,0-4.07-6.36,8.91,8.91,0,0,0-1-.07,6,6,0,0,0-3.84,1.29,3.05,3.05,0,0,1-1.92.76,3.84,3.84,0,0,1-2.1-.76A6.75,6.75,0,0,0,30.49,55.64Z"></path>
      <path xmlns="http://www.w3.org/2000/svg" d="M35,80.35a3.81,3.81,0,0,1-2.7-1.29c-3.61-3.53-7.69-7.53-10-12.67a11.39,11.39,0,0,1-.15-9.3,9.42,9.42,0,0,1,5.95-5.2,9.26,9.26,0,0,1,2.63-.42,5.43,5.43,0,0,1,.57,0,6.67,6.67,0,0,1,1.83.5,10.53,10.53,0,0,0,1.12.38,6.4,6.4,0,0,0,1.61.19,16.15,16.15,0,0,0,3.89-.65l.34-.08a11.11,11.11,0,0,1,2.65-.33,8.58,8.58,0,0,1,6.42,2.71,10.56,10.56,0,0,1,2.58,7.36c-.14,3.13-2.64,6.6-5.06,9.59a52.27,52.27,0,0,1-9,8.16A4.27,4.27,0,0,1,35,80.35ZM30.68,51.57a8.74,8.74,0,0,0-2.6.42,9.34,9.34,0,0,0-5.89,5.14,11.32,11.32,0,0,0,.15,9.22c2.36,5.12,6.43,9.12,10,12.64A3.76,3.76,0,0,0,35,80.25a4.17,4.17,0,0,0,2.53-1,52.43,52.43,0,0,0,9-8.14c2.41-3,4.9-6.44,5-9.53A10.46,10.46,0,0,0,49,54.28a8.51,8.51,0,0,0-6.35-2.68,11,11,0,0,0-2.63.33l-.33.08a16.39,16.39,0,0,1-3.92.65,6.7,6.7,0,0,1-1.64-.2,10.53,10.53,0,0,1-1.12-.38,7.1,7.1,0,0,0-1.81-.49A5.15,5.15,0,0,0,30.68,51.57Zm4.38,24.09-.91-.91c-3.42-3.39-6.65-6.6-8.4-11-1.1-2.77-.56-5.21,1.5-6.87a5.09,5.09,0,0,1,3.24-1.26,6.86,6.86,0,0,1,3.7,1.3,3.81,3.81,0,0,0,2.07.75,3,3,0,0,0,1.89-.75A6,6,0,0,1,42,55.59a9.56,9.56,0,0,1,1,.07,4.55,4.55,0,0,1,4.1,6.43,16.65,16.65,0,0,1-3,5.33,46.67,46.67,0,0,1-9,8.21Zm-4.57-20a5,5,0,0,0-3.18,1.24c-2,1.63-2.55,4-1.47,6.75,1.75,4.41,5,7.61,8.38,11l.85.85a47.17,47.17,0,0,0,9-8.17,16.62,16.62,0,0,0,3-5.31,4.46,4.46,0,0,0-4-6.29,7.43,7.43,0,0,0-1-.07A5.92,5.92,0,0,0,38.21,57a3.09,3.09,0,0,1-2,.77A3.92,3.92,0,0,1,34.13,57,6.66,6.66,0,0,0,30.49,55.69Z"></path>
      <path xmlns="http://www.w3.org/2000/svg" d="M62.53,48.53a16.68,16.68,0,0,1-1.85-.11c-1.34-.14-2.13-.9-2.13-2s.83-1.9,2.37-2c.71,0,1.41-.06,2.12-.06.55,0,1.11,0,1.67,0,1.52.08,2.32.78,2.31,2a1.87,1.87,0,0,1-1.68,1.88,14.55,14.55,0,0,1-2.63.23Z"></path>
      <path xmlns="http://www.w3.org/2000/svg" d="M62.71,48.58h-.18a17.15,17.15,0,0,1-1.86-.11c-1.36-.14-2.17-.92-2.17-2.06s.85-1.95,2.42-2a34.34,34.34,0,0,1,3.79,0c1.55.08,2.37.8,2.36,2.08a1.91,1.91,0,0,1-1.72,1.93A14.69,14.69,0,0,1,62.71,48.58Zm-.18-.1h.18a14.44,14.44,0,0,0,2.62-.23A1.82,1.82,0,0,0,67,46.43c0-1.22-.77-1.9-2.26-2a31.87,31.87,0,0,0-3.78,0c-1.51.09-2.32.76-2.33,1.94s.78,1.82,2.09,2a16.79,16.79,0,0,0,1.84.11Z"></path>
      <path xmlns="http://www.w3.org/2000/svg" d="M52.38,48.63c-.53,0-1.05,0-1.56-.06a1.8,1.8,0,0,1-1.91-1.89,1.88,1.88,0,0,1,.45-1.42,1.94,1.94,0,0,1,1.42-.55c.6,0,1.21,0,1.81,0,.81,0,1.62,0,2.43,0s2.11.28,2.22,1.67a2,2,0,0,1-.49,1.49,2.37,2.37,0,0,1-1.61.64,18.1,18.1,0,0,1-2.07.11Z"></path>
      <path xmlns="http://www.w3.org/2000/svg" d="M53.07,48.69h-.69l-1.56-.06a1.85,1.85,0,0,1-2-1.94,1.92,1.92,0,0,1,.47-1.45,2,2,0,0,1,1.45-.57c1.42,0,2.86,0,4.24,0,.8,0,2.16.29,2.27,1.72a2,2,0,0,1-.51,1.52,2.41,2.41,0,0,1-1.64.66A18.1,18.1,0,0,1,53.07,48.69Zm-.48-4c-.6,0-1.21,0-1.81,0a1.91,1.91,0,0,0-1.38.53A1.87,1.87,0,0,0,49,46.68a1.74,1.74,0,0,0,1.86,1.84l1.56.06h.69a17.91,17.91,0,0,0,2.06-.11,2.37,2.37,0,0,0,1.58-.62,1.91,1.91,0,0,0,.48-1.46c-.11-1.34-1.4-1.59-2.17-1.62S53.41,44.73,52.59,44.73Z"></path>
      <path xmlns="http://www.w3.org/2000/svg" d="M33.05,48.93c-1.36,0-4.18-.12-4.22-2.21a2,2,0,0,1,1.83-2.11,14.19,14.19,0,0,1,1.49-.07,21.3,21.3,0,0,1,3,.23c1.24.19,2,.9,1.94,1.95,0,1.45-1.23,2.22-3.51,2.22Z"></path>
      <path xmlns="http://www.w3.org/2000/svg" d="M33.59,49h-.54v0c-1.37,0-4.23-.12-4.27-2.26a2,2,0,0,1,1.88-2.16,14.19,14.19,0,0,1,1.49-.07,21.44,21.44,0,0,1,3,.23c1.27.19,2,.92,2,2C37.13,48.21,35.9,49,33.59,49Zm-.54-.11h.54c2.25,0,3.44-.75,3.46-2.17,0-1-.68-1.72-1.9-1.9a21.16,21.16,0,0,0-3-.23,14,14,0,0,0-1.48.07,1.9,1.9,0,0,0-1.79,2.06c0,2.05,2.83,2.12,4.17,2.16Z"></path>
      <path xmlns="http://www.w3.org/2000/svg" d="M41.46,48.61H40.8c-1.46,0-2.17-.64-2.17-1.83a1.94,1.94,0,0,1,2.06-2c.63,0,1.27,0,1.9,0l1.66,0c1.49.05,2.3.77,2.29,2,0,1.61-1.31,1.83-2.43,1.84H41.46Z"></path>
      <path xmlns="http://www.w3.org/2000/svg" d="M43.51,48.66H40.8c-1.5,0-2.22-.65-2.22-1.88a2,2,0,0,1,2.11-2.07c.59,0,1.22-.05,1.9-.05l1.66,0c1.52,0,2.35.79,2.34,2.09,0,1.65-1.34,1.88-2.48,1.89Zm-.92-3.91c-.68,0-1.3,0-1.9,0a1.89,1.89,0,0,0-2,2c0,1.16.69,1.74,2.12,1.78h3.31c1.1,0,2.35-.22,2.38-1.79,0-1.24-.78-2-2.25-2Z"></path>
    </g>
    <g id="SvgjsG24937" transform="matrix(4.485645605523827,0,0,4.485645605523827,-2.3325377682379935,112.99641781814847)" fill="#393e46">
      <path d="M7.76 8.9 c-2.32 0 -4.08 1.86 -4.08 4.22 c0 2.42 1.76 4.26 4.18 4.26 c1.68 0 2.96 -0.88 3.74 -2.22 l2.42 1.68 c-1.32 2.16 -3.34 3.44 -6.12 3.44 c-4.22 0 -7.38 -3.14 -7.38 -7.16 c0 -3.98 3.14 -7.1 7.3 -7.1 c2.7 0 4.84 1.12 6.14 3.42 l-2.46 1.7 c-0.8 -1.32 -2 -2.24 -3.74 -2.24 z M20.6 9.14 l-2.28 0 l0 3.66 l2.18 0 c1.34 0 2.16 -0.76 2.16 -1.82 s-0.68 -1.84 -2.06 -1.84 z M18.32 15.34 l0 4.66 l-3.1 0 l0 -13.7 l5.84 0 c2.92 0 4.72 1.88 4.72 4.56 c0 2.14 -1.42 3.92 -3.74 4.38 l4.36 4.76 l-4.04 0 z M33.38 20.24 c-3.84 0 -5.94 -2.28 -5.94 -5.68 l0 -8.26 l3.1 0 l0 7.84 c0 2.08 1.02 3.22 2.82 3.22 c1.78 0 2.78 -1.14 2.78 -3.22 l0 -7.84 l3.1 0 l0 8.26 c0 3.4 -2.08 5.68 -5.86 5.68 z M43.94 20 l-3.1 0 l0 -13.7 l3.1 0 l0 13.7 z M50.58 20.26 c-3.46 0 -5.36 -1.72 -5.54 -4.54 l3.1 0 c0.06 1.04 0.66 2.08 2.52 2.08 c1.56 0 2.36 -0.62 2.36 -1.48 c0 -1.06 -1.34 -1.34 -2.9 -1.68 c-2.18 -0.52 -4.84 -1.16 -4.84 -4.42 c0 -2.4 1.86 -4.18 5.14 -4.18 c3.34 0 5.18 1.82 5.38 4.5 l-3.12 0 c-0.06 -1.1 -0.66 -1.98 -2.34 -1.98 c-1.24 0 -2.06 0.5 -2.06 1.4 c0 1.16 1.36 1.48 2.92 1.84 c2.24 0.5 4.92 1.06 4.92 4.14 c0 2.5 -1.96 4.32 -5.54 4.32 z M57.36 20 l0 -13.7 l10.02 0 l0 2.8 l-6.92 0 l0 2.58 l6.4 0 l0 2.72 l-6.4 0 l0 2.8 l6.94 0 l0 2.8 l-10.04 0 z"></path>
    </g>
    <g id="SvgjsG24938" transform="matrix(1.862255088729387,0,0,1.862255088729387,26.834165372368375,203.19892013017258)" fill="#fd7014">
      <path d="M15.08 5.800000000000001 l0.22 0 l0 14.2 l-1.78 0 l0 -9.42 l-4.96 6.48 l-0.12 0 l-4.96 -6.46 l0 9.4 l-1.78 0 l0 -14.2 l0.2 0 l6.6 8.4 z M30.427 20 l-1.22 -2.84 l-6.24 0 l-1.22 2.84 l-1.92 0 l6.16 -14.2 l0.2 0 l6.16 14.2 l-1.92 0 z M23.687 15.48 l4.8 0 l-2.4 -5.54 z M41.694 6 c4.64 0 7.2 2.84 7.2 7 s-2.56 7 -7.2 7 l-4.8 0 l0 -14 l4.8 0 z M41.794000000000004 18.28 c3.4 0 5.3 -2.12 5.3 -5.28 c0 -3.18 -1.9 -5.28 -5.3 -5.28 l-3.1 0 l0 10.56 l3.1 0 z M62.681000000000004 18.28 l0.12 1.72 l-8.52 0 l0 -14 l8.12 0 l0.14 1.72 l-6.46 0 l0 3.42 l4.38 0 l0 1.72 l-4.38 0 l0 5.42 l6.6 0 z M85.735 18.28 l0.12 1.72 l-8.52 0 l0 -14 l8.12 0 l0.14 1.72 l-6.46 0 l0 3.42 l4.38 0 l0 1.72 l-4.38 0 l0 5.42 l6.6 0 z M100.20200000000001 20 l-1.22 -2.84 l-6.24 0 l-1.22 2.84 l-1.92 0 l6.16 -14.2 l0.2 0 l6.16 14.2 l-1.92 0 z M93.462 15.48 l4.8 0 l-2.4 -5.54 z M105.88900000000001 18.54 c0.88 0.82 2.7 1.66 4.52 1.66 c2.8 0 4.58 -1.44 4.58 -3.7 c0 -1.84 -0.88 -2.92 -3.92 -4.64 c-2.32 -1.34 -2.88 -1.78 -2.88 -2.66 c0 -0.94 0.88 -1.68 2.36 -1.68 c0.86 0 2 0.38 2.66 0.8 l0.96 -1.44 c-0.94 -0.62 -2.42 -1.08 -3.6 -1.08 c-2.58 0 -4.3 1.48 -4.3 3.42 c0 1.72 0.86 2.58 3.5 4.02 c2.34 1.28 3.3 2.22 3.3 3.24 c0 1.2 -1.04 1.92 -2.66 1.92 c-1.4 0 -2.8 -0.66 -3.5 -1.3 z M130.57600000000002 6 l-4.94 7.78 l0 6.22 l-1.8 0 l0 -6.2 l-4.96 -7.8 l2.04 0 l3.82 6.02 l3.8 -6.02 l2.04 0 z"></path>
    </g>
  </g>
</svg>
