<?xml version="1.0" encoding="UTF-8"?>
<svg xmlns="http://www.w3.org/2000/svg" version="1.1" id="_x2014_ÎÓÈ_x5F_1" x="0" y="0" viewBox="0 0 300 300" xml:space="preserve">
  <style>.st0{fill:#fff}</style>
  <path class="st0" d="M50 9.72C38.05 9.72 31.82 4.96 25.83 0h-1.69C30.69 5.43 36.93 11.12 50 11.12v-1.4zM150 9.72c-11.95 0-18.18-4.75-24.17-9.72h-1.69c6.55 5.43 12.79 11.12 25.86 11.12v-1.4zM50 11.12c13.07 0 19.31-5.69 25.86-11.12h-1.69C68.18 4.96 61.95 9.72 50 9.72v1.4zM250 9.72c-11.95 0-18.18-4.75-24.17-9.72h-1.69c6.55 5.43 12.79 11.12 25.86 11.12v-1.4zM150 11.12c13.07 0 19.31-5.69 25.86-11.12h-1.69c-5.98 4.96-12.22 9.72-24.17 9.72v1.4zM250 11.12c13.07 0 19.31-5.69 25.86-11.12h-1.69c-5.98 4.96-12.22 9.72-24.17 9.72v1.4zM50 36.99c-25 0-25-20.81-50-20.81v1.4c25 0 25 20.81 50 20.81v-1.4zM100 17.58c25 0 25 20.81 50 20.81v-1.4c-25 0-25-20.81-50-20.81S75 36.99 50 36.99v1.4c25 0 25-20.81 50-20.81zM200 17.58c25 0 25 20.81 50 20.81v-1.4c-25 0-25-20.81-50-20.81s-25 20.81-50 20.81v1.4c25 0 25-20.81 50-20.81zM250 38.39c25 0 25-20.81 50-20.81v-1.4c-25 0-25 20.81-50 20.81v1.4zM50 64.26c-25 0-25-20.81-50-20.81v1.4c25 0 25 20.81 50 20.81v-1.4zM100 44.85c25 0 25 20.81 50 20.81v-1.4c-25 0-25-20.81-50-20.81S75 64.26 50 64.26v1.4c25 0 25-20.81 50-20.81zM200 44.85c25 0 25 20.81 50 20.81v-1.4c-25 0-25-20.81-50-20.81s-25 20.81-50 20.81v1.4c25 0 25-20.81 50-20.81zM250 65.66c25 0 25-20.81 50-20.81v-1.4c-25 0-25 20.81-50 20.81v1.4zM50 91.53c-25 0-25-20.81-50-20.81v1.4c25 0 25 20.81 50 20.81v-1.4zM100 72.12c25 0 25 20.81 50 20.81v-1.4c-25 0-25-20.81-50-20.81S75 91.53 50 91.53v1.4c25 0 25-20.81 50-20.81zM200 72.12c25 0 25 20.81 50 20.81v-1.4c-25 0-25-20.81-50-20.81s-25 20.81-50 20.81v1.4c25 0 25-20.81 50-20.81zM250 92.93c25 0 25-20.81 50-20.81v-1.4c-25 0-25 20.81-50 20.81v1.4zM50 118.8c-25 0-25-20.81-50-20.81v1.4c25 0 25 20.81 50 20.81v-1.4zM100 99.39c25 0 25 20.81 50 20.81v-1.4c-25 0-25-20.81-50-20.81S75 118.8 50 118.8v1.4c25 .01 25-20.81 50-20.81zM200 99.39c25 0 25 20.81 50 20.81v-1.4c-25 0-25-20.81-50-20.81s-25 20.81-50 20.81v1.4c25 .01 25-20.81 50-20.81zM250 120.21c25 0 25-20.81 50-20.81V98c-25 0-25 20.81-50 20.81v1.4zM50 146.07c-25 0-25-20.81-50-20.81v1.4c25 0 25 20.81 50 20.81v-1.4zM100 126.66c25 0 25 20.81 50 20.81v-1.4c-25 0-25-20.81-50-20.81s-25 20.81-50 20.81v1.4c25 .01 25-20.81 50-20.81zM200 126.66c25 0 25 20.81 50 20.81v-1.4c-25 0-25-20.81-50-20.81s-25 20.81-50 20.81v1.4c25 .01 25-20.81 50-20.81zM250 147.48c25 0 25-20.81 50-20.81v-1.4c-25 0-25 20.81-50 20.81v1.4zM50 173.35c-25 0-25-20.81-50-20.81v1.4c25 0 25 20.81 50 20.81v-1.4zM100 153.94c25 0 25 20.81 50 20.81v-1.4c-25 0-25-20.81-50-20.81s-25 20.81-50 20.81v1.4c25 0 25-20.81 50-20.81zM200 153.94c25 0 25 20.81 50 20.81v-1.4c-25 0-25-20.81-50-20.81s-25 20.81-50 20.81v1.4c25 0 25-20.81 50-20.81zM250 174.75c25 0 25-20.81 50-20.81v-1.4c-25 0-25 20.81-50 20.81v1.4zM50 200.62c-25 0-25-20.81-50-20.81v1.4c25 0 25 20.81 50 20.81v-1.4zM100 181.21c25 0 25 20.81 50 20.81v-1.4c-25 0-25-20.81-50-20.81s-25 20.81-50 20.81v1.4c25 0 25-20.81 50-20.81zM200 181.21c25 0 25 20.81 50 20.81v-1.4c-25 0-25-20.81-50-20.81s-25 20.81-50 20.81v1.4c25 0 25-20.81 50-20.81zM250 202.02c25 0 25-20.81 50-20.81v-1.4c-25 0-25 20.81-50 20.81v1.4zM50 227.89c-25 0-25-20.81-50-20.81v1.4c25 0 25 20.81 50 20.81v-1.4zM100 208.48c25 0 25 20.81 50 20.81v-1.4c-25 0-25-20.81-50-20.81s-25 20.81-50 20.81v1.4c25 0 25-20.81 50-20.81zM200 208.48c25 0 25 20.81 50 20.81v-1.4c-25 0-25-20.81-50-20.81s-25 20.81-50 20.81v1.4c25 0 25-20.81 50-20.81zM250 229.29c25 0 25-20.81 50-20.81v-1.4c-25 0-25 20.81-50 20.81v1.4zM50 255.16c-25 0-25-20.81-50-20.81v1.4c25 0 25 20.81 50 20.81v-1.4zM100 235.75c25 0 25 20.81 50 20.81v-1.4c-25 0-25-20.81-50-20.81s-25 20.81-50 20.81v1.4c25 0 25-20.81 50-20.81zM200 235.75c25 0 25 20.81 50 20.81v-1.4c-25 0-25-20.81-50-20.81s-25 20.81-50 20.81v1.4c25 0 25-20.81 50-20.81zM250 256.56c25 0 25-20.81 50-20.81v-1.4c-25 0-25 20.81-50 20.81v1.4zM50 282.43c-25 0-25-20.81-50-20.81v1.4c25 0 25 20.81 50 20.81v-1.4zM100 263.02c25 0 25 20.81 50 20.81v-1.4c-25 0-25-20.81-50-20.81s-25 20.81-50 20.81v1.4c25 .01 25-20.81 50-20.81zM200 263.02c25 0 25 20.81 50 20.81v-1.4c-25 0-25-20.81-50-20.81s-25 20.81-50 20.81v1.4c25 .01 25-20.81 50-20.81zM250 283.84c25 0 25-20.81 50-20.81v-1.4c-25 0-25 20.81-50 20.81v1.4zM0 290.29c11.94 0 18.18 4.75 24.16 9.71h1.69C19.3 294.57 13.06 288.89 0 288.89v1.4zM74.16 300h1.69c5.98-4.96 12.22-9.71 24.16-9.71s18.17 4.75 24.16 9.71h1.69c-6.54-5.43-12.78-11.11-25.84-11.11S80.7 294.57 74.16 300zM174.16 300h1.69c5.98-4.96 12.22-9.71 24.16-9.71s18.17 4.75 24.16 9.71h1.69c-6.54-5.43-12.78-11.11-25.84-11.11-13.08 0-19.32 5.68-25.86 11.11zM275.84 300c5.98-4.96 12.22-9.71 24.16-9.71v-1.4c-13.06 0-19.3 5.68-25.84 11.11h1.68z"></path>
</svg>
