<?xml version="1.0" encoding="UTF-8"?>
<svg xmlns="http://www.w3.org/2000/svg" id="Layer_1" data-name="Layer 1" viewBox="0 0 1221.26 1112.76">
  <defs>
    <style>.cls-1{fill:#fd7014;}</style>
  </defs>
  <title>Artboard 19</title>
  <path class="cls-1" d="M219.83,711.53c-34.6,0-60.86,27.74-60.86,62.94,0,36.1,26.26,63.54,62.35,63.54,25.06,0,44.15-13.12,55.79-33.11L313.21,830c-19.69,32.22-49.82,51.31-91.29,51.31-62.95,0-110.08-46.84-110.08-106.8,0-59.36,46.84-105.9,108.89-105.9,40.27,0,72.19,16.7,91.58,51l-36.69,25.36c-11.94-19.69-29.83-33.41-55.79-33.41Z"></path>
  <path class="cls-1" d="M432.83,806.08c34.62-6.83,55.79-33.39,55.79-65.32,0-40-26.85-68-70.4-68H331.1V877.08h46.23v-69.5l60.28,69.5h60.24Zm-55.5-36.37v-54.6h34c20.58,0,30.74,11.65,30.74,27.45s-12.25,27.15-32.23,27.15Z"></path>
  <path class="cls-1" d="M602,880.67c-57.28,0-88.6-34-88.6-84.72V672.75h46.24V789.69c0,31,15.21,48,42.06,48,26.55,0,41.47-17,41.47-48V672.75h46.24V796c0,50.72-31,84.72-87.41,84.72Z"></path>
  <polygon class="cls-1" points="759.49 877.09 713.25 877.09 713.25 672.75 759.49 672.75 759.49 877.09 759.49 877.09"></polygon>
  <path class="cls-1" d="M858.53,881c-51.61,0-79.95-25.65-82.63-67.72h46.24c.89,15.52,9.84,31,37.59,31,23.27,0,35.2-9.25,35.2-22.08,0-15.81-20-20-43.26-25.06-32.51-7.75-72.19-17.3-72.19-65.92,0-35.8,27.74-62.35,76.67-62.35C906,668.87,933.41,696,936.4,736H889.86C889,719.58,880,706.46,855,706.46c-18.49,0-30.72,7.45-30.72,20.88,0,17.3,20.28,22.07,43.55,27.44,33.41,7.46,73.39,15.81,73.39,61.76,0,37.29-29.24,64.43-82.64,64.43Z"></path>
  <polygon class="cls-1" points="959.66 877.09 959.66 672.75 1109.12 672.75 1109.12 714.51 1005.9 714.51 1005.9 752.99 1101.37 752.99 1101.37 793.57 1005.9 793.57 1005.9 835.33 1109.42 835.33 1109.42 877.09 959.66 877.09 959.66 877.09 959.66 877.09"></polygon>
  <polygon class="cls-1" points="294.45 914.64 295.82 914.64 295.82 1002.57 284.79 1002.57 284.79 944.24 254.08 984.37 253.34 984.37 222.62 944.36 222.62 1002.57 211.6 1002.57 211.6 914.64 212.84 914.64 253.71 966.66 294.45 914.64 294.45 914.64"></polygon>
  <path class="cls-1" d="M363.23,914.65H362l-38.14,87.93h11.88L343.28,985H382l7.53,17.59h11.88Zm-15.47,60,14.87-34.32,14.83,34.32Z"></path>
  <path class="cls-1" d="M459.25,915.88H429.54v86.7h29.71c28.74,0,44.61-17.59,44.61-43.35S488,915.88,459.25,915.88Zm.63,76H440.7V926.54h19.18c21,0,32.83,13,32.83,32.69S480.92,991.92,459.88,991.92Z"></path>
  <polygon class="cls-1" points="589.22 991.92 589.97 1002.57 537.21 1002.57 537.21 915.88 587.49 915.88 588.36 926.53 548.35 926.53 548.35 947.71 575.48 947.71 575.48 958.36 548.35 958.36 548.35 991.92 589.22 991.92 589.22 991.92 589.22 991.92"></polygon>
  <polygon class="cls-1" points="731.99 991.92 732.73 1002.57 679.97 1002.57 679.97 915.88 730.25 915.88 731.12 926.53 691.11 926.53 691.11 947.71 718.24 947.71 718.24 958.36 691.11 958.36 691.11 991.92 731.99 991.92 731.99 991.92 731.99 991.92"></polygon>
  <path class="cls-1" d="M795.31,914.65h-1.23L756,1002.58h11.88L775.36,985H814l7.54,17.59h11.88Zm-15.47,60,14.84-34.32,14.87,34.32Z"></path>
  <path class="cls-1" d="M856.79,993.53c5.45,5.08,16.72,10.28,28,10.28,17.34,0,28.36-8.92,28.36-22.91,0-11.4-5.45-18.08-24.27-28.73-14.37-8.3-17.84-11-17.84-16.48,0-5.82,5.45-10.4,14.62-10.4a35.19,35.19,0,0,1,16.47,5l5.94-8.91a44.73,44.73,0,0,0-22.29-6.69c-16,0-26.63,9.16-26.63,21.18,0,10.65,5.33,16,21.68,24.89,14.49,7.93,20.43,13.75,20.43,20.06,0,7.44-6.44,11.89-16.47,11.89-8.67,0-17.34-4.08-21.68-8l-6.31,8.92Z"></path>
  <polygon class="cls-1" points="1009.66 915.88 979.07 964.05 979.07 1002.57 967.92 1002.57 967.92 964.18 937.21 915.88 949.84 915.88 973.5 953.16 997.03 915.88 1009.66 915.88 1009.66 915.88 1009.66 915.88"></polygon>
  <path class="cls-1" d="M776.6,472.78a306.21,306.21,0,0,1-41.63-.87c-38.26-3.17-76.18-12.87-113-26.07-12.73-4.78-24.25-9.56-38.93-14.55-7-2.29-13.81-5.19-21-7l-21.55-5.19a330.51,330.51,0,0,0-87.63-5.66,350.81,350.81,0,0,0-37.66,5.19,329.67,329.67,0,0,0-37,9.23q-5,1.51-9.9,3.23c-27,9.56-53,21.55-75.78,38.32a472.63,472.63,0,0,1,80.63-18.79q11.51-1.71,23-2.82h0c10.91,11.39,22.36,22.5,34,33.08a858.4,858.4,0,0,0,81.36,64.86c4.45,3.1,8.89,6.2,13.34,9.23l13.87,9.43c19.67,13.06,39.74,25.46,60.83,36.71l1.21.67,1.21-.67c21-11.25,41.16-23.65,60.82-36.71L676.64,555c4.45-3,8.82-6.13,13.27-9.23q24.55-17.28,48-36.31h0a262.37,262.37,0,0,0,42.35-3.5c29.24-4.78,57.66-14.88,82.58-30.17,24.72-15.56,46.34-35.43,61.83-59.07-43.37,34-93.42,52.87-144.41,55.9ZM673.81,524.19q-15.15,11.91-30.65,23.3c-1.68,1.35-7.41,5.25-13.27,9.5q-14.45,10.2-29.16,19.67Q586,567.15,571.5,557c-5.86-4.25-11.59-8.15-13.21-9.5q-15.56-11.41-30.64-23.3-19.9-15.66-38.93-32.27c-12.73-11-25.2-22.29-37.05-34-4.11-4-8.15-8.15-12.12-12.26h0c4.64,0,9.29.07,13.94.27,26.67.87,52.67,5.18,78,11.45L550.28,463c6.26,1.75,12.19,4.58,18.32,6.8l39,15.36C635,494.67,663,503,692.2,506.6c.94.13,1.89.2,2.83.33h0Q684.52,515.73,673.81,524.19Z"></path>
  <path class="cls-1" d="M501.38,177a12.64,12.64,0,0,1-12.66,12.66,26.75,26.75,0,0,0-25,17l-26.81,68.16H764.54l-51.26-67.56A44.09,44.09,0,0,0,678,189.69H530.61V182H611l-26-31.79a35.3,35.3,0,0,0-27.22-12.94H513.7a12.33,12.33,0,0,0-12.32,12.33Zm16,54.83H683.65a16.84,16.84,0,0,1,14.21,7.81l3.3,5.26a3.5,3.5,0,0,1-3,5.38H503.8a3.52,3.52,0,0,1-3.23-4.85l1.28-3.16A16.79,16.79,0,0,1,517.41,231.86Z"></path>
  <path class="cls-1" d="M915.76,291.74H402.1a20.91,20.91,0,0,0-19.61,13.6l-41.76,111c6.27-2.56,12.87-5.05,19.67-7.48a372.83,372.83,0,0,1,90.46-18.93A353.87,353.87,0,0,1,545,396l.94.2,21.55,5.19c6,1.48,11.45,3.5,16.3,5.18,2.16.81,4.38,1.62,6.6,2.36,10.92,3.7,19.94,7.21,28.7,10.57q5.45,2.13,11.11,4.25C683.78,443,731.4,451.37,775.45,449.29A225.52,225.52,0,0,0,839.31,437l87.16-124.75A13.07,13.07,0,0,0,915.76,291.74ZM488.24,355.39h-35.9a12.06,12.06,0,0,1,0-24.11h35.9a12.06,12.06,0,1,1,0,24.11Zm82.79,0H535.12a12.06,12.06,0,0,1,0-24.11H571a12.06,12.06,0,0,1,0,24.11Zm82.71,0H617.91a12.06,12.06,0,1,1,0-24.11h35.83a12.06,12.06,0,1,1,0,24.11Zm82.78,0h-35.9a12.06,12.06,0,1,1,0-24.11h35.9a12.06,12.06,0,1,1,0,24.11Z"></path>
  <path class="cls-1" d="M675.9,162.75a101.91,101.91,0,0,1,10.3-4.65,108.57,108.57,0,0,1,20.68-6,102.08,102.08,0,0,1,21.56-1.55c15,.2,29.9,2.22,43.71,7.21,27.75,9.43,51.93,28.56,66.62,54a118.76,118.76,0,0,1,14.82,41.15A122.75,122.75,0,0,1,855,278.27h38.93A157.52,157.52,0,0,0,892.52,247a159.62,159.62,0,0,0-18.8-55,162.31,162.31,0,0,0-88-73.56c-18.39-6.53-37.85-9.16-56.85-9.36a148.07,148.07,0,0,0-29.5,2.36,151.28,151.28,0,0,0-28.43,8.22,186.93,186.93,0,0,0-49.1,29.57c-.54.47-1.08.87-1.61,1.41l10,12.19Z"></path>
  <path class="cls-1" d="M340.94,377.42,358.45,331a175.38,175.38,0,0,1-10-33.75,132.34,132.34,0,0,1-.67-44.32,120,120,0,0,1,14.81-41.15c14.69-25.46,38.87-44.59,66.62-54,13.81-5,28.76-7,43.71-7.21a10.59,10.59,0,0,1,1.49,0v-1a39.25,39.25,0,0,1,29.09-37.85,11.28,11.28,0,0,0-1.48-.34A147.79,147.79,0,0,0,472.62,109c-19.06.2-38.53,2.83-56.85,9.36-36.91,12.73-69.11,39.41-88.1,73.56a159.62,159.62,0,0,0-18.8,55,163.77,163.77,0,0,0,2,57.59C316.55,331.21,327.46,355.39,340.94,377.42Z"></path>
</svg>
