<?xml version="1.0" encoding="UTF-8"?>
<svg xmlns="http://www.w3.org/2000/svg" id="Layer_1" data-name="Layer 1" viewBox="0 0 1221.26 1112.76">
  <defs>
    <style>.cls-1{fill:#fd7014;}</style>
  </defs>
  <title>Artboard 15</title>
  <path class="cls-1" d="M899.92,761a534.4,534.4,0,0,1-72.56-1.52c-66.68-5.52-132.78-22.43-197-45.44-22.19-8.33-42.27-16.67-67.86-25.36-12.21-4-24.07-9-36.63-12.21l-37.57-9a576.53,576.53,0,0,0-152.75-9.86,612.38,612.38,0,0,0-65.63,9,577.32,577.32,0,0,0-64.57,16.08q-8.62,2.65-17.26,5.64c-47,16.67-92.4,37.57-132.08,66.8a822.59,822.59,0,0,1,140.53-32.75q20.07-3,40.14-4.93h0c19,19.85,39,39.22,59.29,57.65A1496.73,1496.73,0,0,0,437.81,888.21c7.75,5.4,15.5,10.8,23.25,16.09l24.18,16.43c34.28,22.78,69.27,44.38,106,64l2.11,1.17,2.12-1.17c36.63-19.61,71.73-41.21,106-64l24.19-16.43c7.75-5.29,15.38-10.69,23.13-16.09q42.79-30.11,83.71-63.28l0,0a459.65,459.65,0,0,0,73.83-6.1c51-8.34,100.5-25.95,143.94-52.6,43.08-27.12,80.77-61.76,107.78-103-75.61,59.29-162.85,92.16-251.72,97.44Zm-179.16,89.6q-26.41,20.79-53.42,40.62c-2.94,2.35-12.92,9.16-23.13,16.56Q619,925.61,593.37,942.1q-25.71-16.56-51-34.28c-10.22-7.4-20.19-14.21-23-16.56Q492.29,871.37,466,850.64q-34.69-27.3-67.86-56.24c-22.19-19.13-43.91-38.86-64.58-59.28-7.16-7-14.2-14.21-21.13-21.37v0h0c8.1,0,16.2.12,24.31.47,46.49,1.53,91.81,9,136,20l32.76,9.74c10.92,3.06,21.25,8,31.93,11.86l68,26.77C653,799.2,701.86,813.64,752.81,820c1.64.24,3.29.35,4.93.59h0l0,0Q739.43,835.91,720.76,850.64Z"></path>
  <path class="cls-1" d="M420.2,245.53a22.05,22.05,0,0,1-22.07,22.08,46.64,46.64,0,0,0-43.56,29.58L307.84,416H878.9L789.56,298.25A76.86,76.86,0,0,0,728,267.61H471.15V254.1H611.34L566,198.69a61.49,61.49,0,0,0-47.43-22.54H441.68a21.49,21.49,0,0,0-21.48,21.48Zm27.94,95.57H737.9a29.36,29.36,0,0,1,24.77,13.62l5.75,9.16a6.11,6.11,0,0,1-5.16,9.39H424.43a6.13,6.13,0,0,1-5.64-8.45L421,359.3A29.25,29.25,0,0,1,448.14,341.1Z"></path>
  <path class="cls-1" d="M1142.48,445.48H247.14A36.41,36.41,0,0,0,213,469.19L140.19,662.68c10.92-4.47,22.42-8.81,34.28-13a649.94,649.94,0,0,1,157.68-33,617.08,617.08,0,0,1,164.13,10.57l1.64.35,37.57,9c10.45,2.58,20,6.11,28.41,9,3.76,1.41,7.63,2.82,11.51,4.11,19,6.46,34.75,12.56,50,18.43q9.51,3.7,19.38,7.4c93.33,33.58,176.34,48.14,253.12,44.5a393,393,0,0,0,111.3-21.37l151.93-217.44C1171.6,466.14,1160.91,445.48,1142.48,445.48ZM397.31,556.42H334.73a21,21,0,0,1,0-42h62.58a21,21,0,0,1,0,42Zm144.29,0H479a21,21,0,1,1,0-42H541.6a21,21,0,0,1,0,42Zm144.17,0H623.31a21,21,0,0,1,0-42h62.46a21,21,0,1,1,0,42Zm144.29,0H767.48a21,21,0,0,1,0-42h62.58a21,21,0,1,1,0,42Z"></path>
  <path class="cls-1" d="M724.4,220.64a176.74,176.74,0,0,1,18-8.1,188.69,188.69,0,0,1,36-10.45,177.82,177.82,0,0,1,37.57-2.7c26.19.36,52.13,3.88,76.2,12.57,48.37,16.43,90.52,49.78,116.11,94.15a207,207,0,0,1,25.83,71.74,212.68,212.68,0,0,1,2.47,44.14h67.86A274.82,274.82,0,0,0,1102,367.4a278.5,278.5,0,0,0-32.75-95.92c-33.11-59.52-89.11-106-153.45-128.21-32-11.38-66-16-99.09-16.32a258.32,258.32,0,0,0-51.43,4.11,263.67,263.67,0,0,0-49.54,14.33,325.56,325.56,0,0,0-85.59,51.54c-.94.82-1.88,1.52-2.82,2.46l17.38,21.25Z"></path>
  <path class="cls-1" d="M140.54,594.82l30.52-80.9a306.62,306.62,0,0,1-17.37-58.82c-4.58-25.94-5.28-52-1.18-77.25a209.71,209.71,0,0,1,25.83-71.74c25.6-44.37,67.75-77.72,116.12-94.15,24.07-8.69,50.13-12.21,76.19-12.57a20.35,20.35,0,0,1,2.59,0v-1.76a68.43,68.43,0,0,1,50.72-66,22,22,0,0,0-2.59-.59,257.68,257.68,0,0,0-51.3-4.11c-33.23.36-67.16,4.94-99.09,16.32C206.64,165.46,150.52,212,117.41,271.48A278.72,278.72,0,0,0,84.65,367.4a284.85,284.85,0,0,0,3.53,100.38C98,514.28,117.06,556.42,140.54,594.82Z"></path>
</svg>
