<?xml version="1.0" encoding="UTF-8"?>
<svg xmlns="http://www.w3.org/2000/svg" id="Layer_1" data-name="Layer 1" viewBox="0 0 2509.37 811.15">
  <defs>
    <style>.cls-1{fill:#fff;}</style>
  </defs>
  <title>Artboard 26</title>
  <path class="cls-1" d="M666.69,539.35a349.41,349.41,0,0,1-47.43-1c-43.59-3.61-86.79-14.66-128.77-29.7-14.5-5.45-27.62-10.89-44.35-16.57-8-2.61-15.73-5.91-23.94-8l-24.56-5.91a376.51,376.51,0,0,0-99.84-6.45,401.52,401.52,0,0,0-42.9,5.91,379.24,379.24,0,0,0-42.2,10.51q-5.64,1.72-11.28,3.69c-30.7,10.89-60.4,24.55-86.34,43.66a538.05,538.05,0,0,1,91.86-21.41q13.13-2,26.24-3.22h0c12.43,13,25.47,25.63,38.75,37.68a980.43,980.43,0,0,0,92.7,73.9c5.06,3.53,10.13,7.06,15.19,10.51l15.81,10.75c22.41,14.88,45.28,29,69.3,41.82l1.38.77,1.38-.77c23.94-12.82,46.89-26.94,69.3-41.82L552.8,633c5.07-3.45,10.06-7,15.12-10.51q28-19.68,54.72-41.36v0a299.19,299.19,0,0,0,48.26-4c33.3-5.44,65.69-17,94.08-34.38,28.16-17.72,52.8-40.36,70.45-67.3C786,514.18,729,535.66,670.91,539.12ZM549.58,597.91q-17.26,13.59-34.91,26.55c-1.92,1.54-8.45,6-15.12,10.82q-16.47,11.63-33.23,22.41-16.8-10.82-33.31-22.41c-6.67-4.83-13.19-9.28-15-10.82q-17.72-13-34.91-26.55-22.68-17.83-44.36-36.76c-14.5-12.5-28.7-25.4-42.2-38.75-4.69-4.6-9.29-9.29-13.82-14h0c5.3,0,10.59.08,15.89.31,30.39,1,60,5.91,88.86,13l21.41,6.36c7.14,2,13.89,5.22,20.88,7.76l44.43,17.49c31.15,10.9,63.08,20.34,96.38,24.48,1.08.16,2.15.23,3.23.39h0Q561.78,588.28,549.58,597.91Z"></path>
  <path class="cls-1" d="M353.13,202.4a14.41,14.41,0,0,1-14.43,14.42,30.52,30.52,0,0,0-28.47,19.34l-30.54,77.66H653l-58.4-77a50.24,50.24,0,0,0-40.21-20H386.43V208h91.63l-29.62-36.22a40.18,40.18,0,0,0-31-14.74H367.17a14.05,14.05,0,0,0-14,14.05Zm18.26,62.46h189.4a19.2,19.2,0,0,1,16.19,8.9l3.76,6a4,4,0,0,1-3.38,6.14H355.89a4,4,0,0,1-3.68-5.53l1.46-3.6A19.1,19.1,0,0,1,371.39,264.86Z"></path>
  <path class="cls-1" d="M825.23,333.08H240a23.81,23.81,0,0,0-22.34,15.51L170.11,475.05c7.13-2.91,14.65-5.75,22.4-8.52A424.84,424.84,0,0,1,295.57,445a403.27,403.27,0,0,1,107.29,6.91l1.07.23L428.49,458c6.83,1.68,13,4,18.57,5.9,2.45.93,5,1.85,7.52,2.69,12.43,4.22,22.71,8.21,32.69,12.05q6.21,2.41,12.66,4.83c61,21.95,115.26,31.47,165.45,29.09a256.64,256.64,0,0,0,72.75-14l99.3-142.12A14.89,14.89,0,0,0,825.23,333.08ZM338.16,405.6h-40.9a13.74,13.74,0,0,1,0-27.47h40.9a13.74,13.74,0,1,1,0,27.47Zm94.32,0h-40.9a13.74,13.74,0,1,1,0-27.47h40.9a13.74,13.74,0,0,1,0,27.47Zm94.23,0H485.89a13.74,13.74,0,1,1,0-27.47h40.82a13.74,13.74,0,1,1,0,27.47Zm94.32,0H580.12a13.74,13.74,0,0,1,0-27.47H621a13.74,13.74,0,0,1,0,27.47Z"></path>
  <path class="cls-1" d="M552,186.13a115.08,115.08,0,0,1,11.74-5.3A123.36,123.36,0,0,1,587.26,174a116,116,0,0,1,24.56-1.76c17.11.23,34.07,2.53,49.8,8.21,31.62,10.74,59.17,32.54,75.9,61.54a135.5,135.5,0,0,1,16.88,46.89A139.33,139.33,0,0,1,756,317.74h44.36a179.67,179.67,0,0,0-1.62-35.69,181.79,181.79,0,0,0-21.41-62.69c-21.64-38.91-58.24-69.3-100.29-83.8-20.95-7.45-43.13-10.44-64.77-10.67a168,168,0,0,0-33.61,2.69,171.71,171.71,0,0,0-32.39,9.36,212.84,212.84,0,0,0-55.94,33.69c-.62.53-1.23,1-1.84,1.61l11.35,13.89Z"></path>
  <path class="cls-1" d="M170.34,430.7l19.95-52.88a199.57,199.57,0,0,1-11.36-38.44,151.22,151.22,0,0,1-.77-50.5A137,137,0,0,1,195.05,242c16.72-29,44.27-50.8,75.89-61.54,15.73-5.68,32.77-8,49.8-8.21a11.92,11.92,0,0,1,1.69,0v-1.15A44.72,44.72,0,0,1,355.58,128a12.69,12.69,0,0,0-1.68-.38,167.87,167.87,0,0,0-33.54-2.69c-21.72.23-43.89,3.22-64.77,10.67-42.05,14.5-78.73,44.89-100.37,83.8a181.79,181.79,0,0,0-21.41,62.69,186,186,0,0,0,2.3,65.61C142.56,378.05,155,405.6,170.34,430.7Z"></path>
  <path class="cls-1" d="M1088.64,222.61c-50.79,0-89.32,40.72-89.32,92.38,0,53,38.53,93.26,91.51,93.26,36.78,0,64.8-19.26,81.87-48.6l53,36.78c-28.89,47.29-73.12,75.31-134,75.31C999.32,471.74,930.14,403,930.14,315c0-87.13,68.74-155.43,159.81-155.43,59.11,0,106,24.52,134.42,74.87l-53.86,37.22c-17.51-28.9-43.78-49-81.87-49Z"></path>
  <path class="cls-1" d="M1401.25,361.39c50.81-10,81.89-49,81.89-95.87,0-58.65-39.41-99.82-103.32-99.82H1251.94V465.59h67.86v-102l88.47,102h88.41ZM1319.8,308V227.86h49.94c30.2,0,45.1,17.1,45.1,40.29s-18,39.85-47.3,39.85Z"></path>
  <path class="cls-1" d="M1649.51,470.86c-84.06,0-130-49.91-130-124.34V165.69h67.86V337.32c0,45.54,22.33,70.5,61.74,70.5,39,0,60.86-25,60.86-70.5V165.69h67.86V346.52c0,74.43-45.53,124.34-128.29,124.34Z"></path>
  <polygon class="cls-1" points="1880.7 465.61 1812.83 465.61 1812.83 165.69 1880.7 165.69 1880.7 465.61 1880.7 465.61"></polygon>
  <path class="cls-1" d="M2026.06,471.3c-75.75,0-117.34-37.65-121.28-99.39h67.86c1.32,22.77,14.45,45.54,55.17,45.54,34.15,0,51.67-13.58,51.67-32.4,0-23.21-29.34-29.34-63.49-36.78-47.73-11.38-106-25.4-106-96.76C1910,199,1950.75,160,2022.56,160c73.12,0,113.4,39.84,117.78,98.51H2072c-1.31-24.08-14.45-43.35-51.22-43.35-27.15,0-45.1,11-45.1,30.65,0,25.4,29.77,32.4,63.92,40.29,49,10.94,107.71,23.2,107.71,90.63,0,54.73-42.91,94.57-121.28,94.57Z"></path>
  <polygon class="cls-1" points="2174.49 465.61 2174.49 165.69 2393.85 165.69 2393.85 226.99 2242.35 226.99 2242.35 283.47 2382.46 283.47 2382.46 343.01 2242.35 343.01 2242.35 404.31 2394.28 404.31 2394.28 465.61 2174.49 465.61 2174.49 465.61 2174.49 465.61"></polygon>
  <polygon class="cls-1" points="1198.16 520.72 1200.16 520.72 1200.16 649.77 1183.98 649.77 1183.98 564.16 1138.9 623.05 1137.81 623.05 1092.73 564.34 1092.73 649.77 1076.55 649.77 1076.55 520.72 1078.37 520.72 1138.36 597.06 1198.16 520.72 1198.16 520.72"></polygon>
  <path class="cls-1" d="M1299.1,520.74h-1.8l-56,129h17.44L1269.82,624h56.75l11.06,25.82h17.44Zm-22.7,88,21.82-50.37L1320,608.71Z"></path>
  <path class="cls-1" d="M1440,522.54h-43.6V649.78H1440c42.19,0,65.47-25.82,65.47-63.62S1482.22,522.54,1440,522.54Zm.93,111.6H1412.8v-96H1441c30.88,0,48.18,19.09,48.18,48C1489.14,614.85,1471.84,634.14,1441,634.14Z"></path>
  <polygon class="cls-1" points="1630.79 634.14 1631.88 649.77 1554.45 649.77 1554.45 522.53 1628.25 522.53 1629.52 538.16 1570.81 538.16 1570.81 569.25 1610.62 569.25 1610.62 584.88 1570.81 584.88 1570.81 634.14 1630.79 634.14 1630.79 634.14 1630.79 634.14"></polygon>
  <polygon class="cls-1" points="1840.32 634.14 1841.41 649.77 1763.98 649.77 1763.98 522.53 1837.78 522.53 1839.05 538.16 1780.34 538.16 1780.34 569.25 1820.15 569.25 1820.15 584.88 1780.34 584.88 1780.34 634.14 1840.32 634.14 1840.32 634.14 1840.32 634.14"></polygon>
  <path class="cls-1" d="M1933.27,520.74h-1.8l-56,129h17.44L1904,624h56.75l11.06,25.82h17.44Zm-22.7,88,21.77-50.37,21.83,50.37Z"></path>
  <path class="cls-1" d="M2023.5,636.5c8,7.46,24.54,15.09,41.08,15.09,25.45,0,41.62-13.09,41.62-33.63,0-16.72-8-26.54-35.62-42.17-21.09-12.18-26.18-16.18-26.18-24.17,0-8.55,8-15.27,21.45-15.27,7.82,0,18.18,3.45,24.18,7.27l8.72-13.09c-8.54-5.63-22-9.82-32.72-9.82-23.45,0-39.08,13.46-39.08,31.09,0,15.63,7.82,23.45,31.81,36.53,21.27,11.64,30,20.18,30,29.45,0,10.91-9.45,17.45-24.17,17.45-12.73,0-25.45-6-31.81-11.81l-9.27,13.08Z"></path>
  <polygon class="cls-1" points="2247.87 522.53 2202.97 593.24 2202.97 649.77 2186.61 649.77 2186.61 593.42 2141.53 522.53 2160.07 522.53 2194.79 577.25 2229.33 522.53 2247.87 522.53 2247.87 522.53 2247.87 522.53"></polygon>
</svg>
